HIERARCHY
ROOT Hips
{
    OFFSET 0.000000 0.000000 0.000000
    CHANNELS 6 Xposition Yposition Zposition Zrotation Xrotation Yrotation
    JOINT Spine
    {
        OFFSET -0.000000 6.925600 0.000000
        CHANNELS 3 Zrotation Xrotation Yrotation
        JOINT Spine1
        {
            OFFSET -0.000000 16.343796 0.000000
            CHANNELS 3 Zrotation Xrotation Yrotation
            JOINT Neck
            {
                OFFSET -0.000000 18.032967 0.000000
                CHANNELS 3 Zrotation Xrotation Yrotation
                JOINT Head
                {
                    OFFSET -0.000000 13.091072 1.689171
                    CHANNELS 3 Zrotation Xrotation Yrotation
                    End Site
                    {
                        OFFSET -0.000000 16.891708 0.000000
                    }
                }
            }
            JOINT LeftShoulder
            {
                OFFSET 3.336773 14.146137 -0.012206
                CHANNELS 3 Zrotation Xrotation Yrotation
                JOINT LeftArm
                {
                    OFFSET 11.765518 0.000000 0.000000
                    CHANNELS 3 Zrotation Xrotation Yrotation
                    JOINT LeftForeArm
                    {
                        OFFSET 25.163450 0.000000 0.000000
                        CHANNELS 3 Zrotation Xrotation Yrotation
                        JOINT LeftHand
                        {
                            OFFSET 21.783554 0.000000 0.000000
                            CHANNELS 3 Zrotation Xrotation Yrotation
                            End Site
                            {
                                OFFSET 12.668781 0.000000 0.000000
                            }
                        }
                    }
                }
            }
            JOINT RightShoulder
            {
                OFFSET -3.409204 14.146137 -0.012206
                CHANNELS 3 Zrotation Xrotation Yrotation
                JOINT RightArm
                {
                    OFFSET -11.765518 0.000000 0.000000
                    CHANNELS 3 Zrotation Xrotation Yrotation
                    JOINT RightForeArm
                    {
                        OFFSET -25.163450 0.000000 0.000000
                        CHANNELS 3 Zrotation Xrotation Yrotation
                        JOINT RightHand
                        {
                            OFFSET -21.783554 0.000000 0.000000
                            CHANNELS 3 Zrotation Xrotation Yrotation
                            End Site
                            {
                                OFFSET -12.668781 0.000000 0.000000
                            }
                        }
                    }
                }
            }
        }
    }
    JOINT LeftUpLeg
    {
        OFFSET 8.445854 0.000000 0.000000
        CHANNELS 3 Zrotation Xrotation Yrotation
        JOINT LeftLeg
        {
            OFFSET -0.000000 -40.674755 0.000000
            CHANNELS 3 Zrotation Xrotation Yrotation
            JOINT LeftFoot
            {
                OFFSET -0.000000 -37.111794 0.000000
                CHANNELS 3 Zrotation Xrotation Yrotation
                JOINT LeftToeBase
                {
                    OFFSET -0.000000 -5.489805 12.668781
                    CHANNELS 3 Zrotation Xrotation Yrotation
                    End Site
                    {
                        OFFSET -0.000000 0.000000 3.378341
                    }
                }
            }
        }
    }
    JOINT RightUpLeg
    {
        OFFSET -8.445854 0.000000 0.000000
        CHANNELS 3 Zrotation Xrotation Yrotation
        JOINT RightLeg
        {
            OFFSET -0.000000 -40.674755 0.000000
            CHANNELS 3 Zrotation Xrotation Yrotation
            JOINT RightFoot
            {
                OFFSET -0.000000 -37.111794 0.000000
                CHANNELS 3 Zrotation Xrotation Yrotation
                JOINT RightToeBase
                {
                    OFFSET -0.000000 -5.489805 12.668781
                    CHANNELS 3 Zrotation Xrotation Yrotation
                    End Site
                    {
                        OFFSET -0.000000 0.000000 3.378341
                    }
                }
            }
        }
    }
}
MOTION
Frames:    12
Frame Time:    0.008333
-0.262152    81.478760    3.147218    -2.799532    -8.952840    -8.506460    0.523668    7.032657    -1.280014    -17.417252    2.919405    0.030273    -2.940304    17.214405    0.850782    -7.695897    3.385689    1.262183    3.072657    9.282872    10.966010    -43.599228    29.453426    -37.292122    2.610846    -12.246184    -75.267960    -26.509560    -8.903659    -5.882475    -8.378649    3.029521    -1.649207    29.280415    -28.888973    4.014012    -1.006451    -22.725132    15.974114    -29.108274    -20.625826    -8.143172    7.981148    -2.618730    -11.410787    -0.304963    28.593847    3.325108    -7.936277    -12.576880    16.038050    -6.807907    -7.465384    3.683222    3.459298    0.693015    -5.053767    -6.560796    28.540684    -12.576729    8.271751    -19.226114    2.226090    -0.779820    0.973811    0.647433    
-0.240848    81.482094    3.055220    -2.775942    -8.785298    -8.430922    0.146346    6.968777    -1.059785    -17.146719    3.719408    0.209632    -3.218165    17.068567    1.012921    -7.454084    4.026923    1.355993    2.777016    9.054137    11.055058    -45.060375    28.228483    -36.407566    3.316536    -12.643620    -73.502174    -26.694202    -8.853440    -5.814069    -8.065783    4.100616    -2.256337    32.745258    -26.728695    4.989104    -1.154305    -22.338924    16.191811    -28.888037    -20.340855    -7.678951    7.955655    -2.889923    -11.824900    -0.539913    28.660353    4.160845    -8.061823    -11.831264    15.817222    -6.889752    -7.502439    3.898547    3.529407    0.467444    -5.018715    -6.661853    28.500910    -12.583611    8.280932    -19.109821    2.119306    -0.820716    1.081610    0.578373    
-0.219687    81.489960    2.969065    -2.778962    -8.684501    -8.370391    -0.176252    6.932875    -0.871330    -16.909500    4.580605    0.386524    -3.436529    16.890949    1.162429    -7.275172    4.676621    1.465061    2.450338    8.720471    11.088485    -46.516907    26.856739    -35.436577    3.957831    -12.872443    -71.608849    -26.743923    -8.747879    -5.645497    -7.542730    4.845149    -2.796435    35.940479    -24.186739    5.985649    -1.425785    -22.178194    16.600914    -28.613508    -20.115942    -7.842434    8.004630    -3.012918    -11.896667    -0.495358    28.485991    3.700831    -8.312734    -12.368626    16.050793    -6.666712    -7.302791    3.610315    3.603860    0.321479    -4.943093    -6.704324    28.451038    -12.659059    8.256390    -19.001221    2.013057    -0.868199    1.216239    0.481995    
-0.190286    81.495377    2.884410    -2.802680    -8.605680    -8.315645    -0.648239    7.109416    -0.660972    -16.248569    5.183231    0.506126    -4.083780    16.660172    1.384583    -6.710770    5.392328    1.465689    2.006960    8.456903    11.175419    -47.968884    25.702866    -34.481300    4.904286    -12.879009    -69.543938    -25.896711    -8.246814    -5.671783    -7.118550    5.549129    -3.333913    38.644508    -22.695311    7.057665    -0.777655    -21.650547    16.870304    -28.655321    -19.817099    -7.214454    8.015425    -3.159054    -11.821306    -0.376156    28.471497    3.521074    -8.417057    -12.477167    15.997035    -6.443201    -6.965971    3.729238    3.690163    0.171019    -4.886234    -6.753832    28.441153    -12.702270    8.226258    -19.001797    1.850585    -0.978425    1.405938    0.478718    
-0.154575    81.506233    2.811038    -2.827668    -8.590573    -8.294080    -1.171878    7.084749    -0.269788    -15.526960    6.194698    0.730809    -4.160937    16.413292    1.302243    -6.763789    6.059579    1.415601    1.681075    8.158282    10.883351    -49.360001    24.482941    -33.662971    5.273098    -13.534259    -67.561974    -26.439119    -8.768185    -5.648342    -6.476878    6.165405    -3.828191    41.529472    -19.473684    8.234389    -1.967222    -21.972059    17.232927    -28.813053    -19.724722    -8.187227    8.005919    -3.210028    -11.855412    -0.329460    28.428083    3.458892    -8.249611    -12.350501    16.043684    -6.464779    -6.945410    3.873154    3.755303    0.069066    -4.812949    -6.818026    28.484299    -12.735108    8.237697    -18.902296    1.766590    -0.994487    1.520466    0.324846    
-0.002399    81.327454    2.598715    -2.491416    -6.937331    -8.316478    -1.714578    5.421731    0.093063    -14.674784    7.172820    0.939839    -4.103314    15.913483    1.045565    -7.184257    6.916780    1.311003    1.239826    7.844389    10.838498    -50.651024    23.572309    -33.132851    6.237549    -13.511619    -64.898636    -25.062931    -8.366820    -5.709414    -5.947360    6.615228    -4.392313    44.207584    -17.421318    9.831444    -2.685156    -21.873648    16.943018    -28.564138    -19.537725    -8.224411    7.764119    -5.196994    -11.571924    -0.201002    28.833042    3.401990    -7.995434    -12.202766    16.090763    -6.718215    -7.222857    4.051305    3.616484    -2.039318    -4.699954    -6.996520    29.061876    -12.765539    8.484007    -18.200033    1.965879    -0.805715    1.399810    -0.033639    
0.091904    81.291740    2.529137    -2.387884    -7.015335    -8.337678    -2.259633    5.576245    0.502361    -13.786553    8.063378    1.107921    -4.553049    15.921075    1.116848    -7.023816    6.965981    1.235809    0.761730    7.606081    10.529070    -50.617805    24.034924    -32.734848    7.474916    -15.201436    -62.437481    -24.297935    -9.488597    -6.085592    -5.570179    7.128333    -4.796724    46.097153    -14.633709    10.699831    -1.858036    -21.964651    17.862665    -29.296329    -19.479591    -9.029143    7.533274    -5.208889    -11.560512    -0.092483    28.897423    3.362091    -7.996567    -12.343374    16.153210    -6.470477    -6.865901    4.126554    3.405355    -2.072359    -4.606540    -6.892231    29.114698    -12.737591    8.402225    -18.809826    1.875896    -1.032064    1.714639    0.097378    
0.166003    81.287064    2.453316    -2.407653    -6.969685    -8.367732    -2.569495    5.824990    0.866099    -13.054042    8.663421    1.238971    -4.855258    15.428257    1.082038    -6.727728    7.673564    1.122754    0.567949    7.455614    10.395017    -51.476219    23.415752    -32.333565    8.151028    -15.280608    -59.829521    -22.598076    -9.517543    -6.014132    -5.151482    7.653508    -5.324497    48.049080    -11.968869    11.869326    -1.231491    -21.794121    18.774546    -29.228104    -19.232542    -9.685267    7.479200    -5.332510    -11.504735    -0.015912    28.955227    3.275739    -7.952990    -12.253519    16.205273    -6.482207    -6.837790    4.253587    3.391623    -2.265569    -4.508216    -6.895837    29.311783    -12.737337    8.485673    -18.059471    1.812136    -0.840636    1.578708    -0.242115    
0.236779    81.269569    2.353126    -2.458813    -6.959964    -8.341518    -2.831055    5.910636    1.219962    -12.362356    9.638885    1.404851    -4.920457    15.038052    0.982926    -6.616130    8.021193    1.017194    0.369196    7.116721    10.015021    -54.077457    19.838762    -32.058163    7.575801    -12.694010    -56.326565    -20.694963    -7.647277    -5.829696    -4.619191    8.093058    -5.652159    49.666901    -9.118218    13.037174    -0.657883    -21.627937    19.769863    -28.751188    -19.057556    -10.221221    7.457084    -5.474215    -11.421913    0.084600    29.073238    3.119179    -7.893000    -12.205030    16.225601    -6.464445    -6.774173    4.368345    3.373124    -2.408413    -4.490718    -6.821327    29.402908    -12.707134    8.395209    -18.692680    1.748832    -1.025068    1.800373    -0.072943    
0.345402    81.260887    2.280932    -2.506576    -6.931848    -8.428248    -2.894866    5.829317    1.582596    -11.903823    10.785345    1.606809    -5.212169    14.452277    1.003141    -6.015324    8.456520    0.890321    0.226527    6.715256    9.628851    -54.671494    19.114817    -31.531288    7.819616    -12.792896    -53.785435    -19.054617    -7.961757    -5.591615    -4.229128    8.382667    -5.802402    51.061970    -6.000196    14.195857    0.214789    -21.570267    20.814777    -27.810873    -19.127268    -10.652692    7.396282    -5.569400    -11.310936    0.186667    29.157667    3.030580    -7.850953    -12.190717    16.278347    -6.477033    -6.766678    4.438772    3.325502    -2.582143    -4.433568    -6.799240    29.602501    -12.650797    8.513363    -17.992275    1.722900    -0.858698    1.660096    -0.329637    
0.462277    81.250671    2.211288    -2.530604    -6.867454    -8.526438    -3.041365    6.001585    1.817487    -11.358540    11.399481    1.690643    -5.348593    13.990324    0.984685    -5.598275    8.748174    0.787182    0.152827    6.576725    9.688165    -55.024090    18.858578    -31.427071    8.070963    -12.761664    -50.876270    -16.992504    -8.208042    -5.253140    -3.925194    8.664064    -5.805563    51.983612    -2.201709    15.286996    1.300049    -22.129892    22.378218    -26.685987    -19.707985    -11.971341    7.312213    -5.678070    -11.262045    0.215136    29.217867    3.054004    -7.745609    -12.205553    16.412363    -6.414971    -6.636362    4.572253    3.163516    -2.713015    -4.405758    -6.584518    29.585253    -12.608248    8.381670    -18.631748    1.736357    -1.048932    1.870899    -0.123787    
0.584989    81.245163    2.147546    -2.557803    -6.798415    -8.638293    -3.155785    5.881433    2.052086    -10.870923    12.421613    1.817081    -4.786442    13.175133    0.903778    -6.031971    9.351829    1.001096    0.148295    6.347724    9.607668    -55.183613    18.701527    -31.416800    8.437575    -12.661279    -47.666302    -14.218121    -8.477069    -4.183218    -3.605043    8.736337    -5.513000    52.505947    1.435254    16.283564    1.293702    -20.868252    23.257858    -24.440130    -18.532906    -12.630751    7.239263    -5.794858    -11.094623    0.322571    29.287558    2.957403    -7.695179    -12.206249    16.425983    -6.425240    -6.627353    4.637647    3.066970    -2.920455    -4.388756    -6.533412    29.773392    -12.509847    8.503415    -17.909803    1.729649    -0.834376    1.656816    -0.397425    
